<svg width="16" height="15" viewBox="0 0 16 15" fill="none" xmlns="http://www.w3.org/2000/svg">
<path d="M0.5 2.5C0.5 2.10218 0.658035 1.72064 0.93934 1.43934C1.22064 1.15804 1.60218 1 2 1H14C14.3978 1 14.7794 1.15804 15.0607 1.43934C15.342 1.72064 15.5 2.10218 15.5 2.5V3.708L8 7.926L0.5 3.708V2.5Z" fill="#272F45"/>
<path d="M0.5 4.855V12.5C0.5 12.8978 0.658035 13.2794 0.93934 13.5607C1.22064 13.842 1.60218 14 2 14H14C14.3978 14 14.7794 13.842 15.0607 13.5607C15.342 13.2794 15.5 12.8978 15.5 12.5V4.855L8 9.074L0.5 4.855Z" fill="#272F45"/>
</svg>
