<svg width="22" height="22" viewBox="0 0 22 22" fill="none" xmlns="http://www.w3.org/2000/svg">
<path d="M11 1C9.68678 1 8.38642 1.25866 7.17317 1.7612C5.95991 2.26375 4.85752 3.00035 3.92893 3.92893C2.05357 5.8043 1 8.34784 1 11C1 15.42 3.87 19.17 7.84 20.5C8.34 20.58 8.5 20.27 8.5 20V18.31C5.73 18.91 5.14 16.97 5.14 16.97C4.68 15.81 4.03 15.5 4.03 15.5C3.12 14.88 4.1 14.9 4.1 14.9C5.1 14.97 5.63 15.93 5.63 15.93C6.5 17.45 7.97 17 8.54 16.76C8.63 16.11 8.89 15.67 9.17 15.42C6.95 15.17 4.62 14.31 4.62 10.5C4.62 9.39 5 8.5 5.65 7.79C5.55 7.54 5.2 6.5 5.75 5.15C5.75 5.15 6.59 4.88 8.5 6.17C9.29 5.95 10.15 5.84 11 5.84C11.85 5.84 12.71 5.95 13.5 6.17C15.41 4.88 16.25 5.15 16.25 5.15C16.8 6.5 16.45 7.54 16.35 7.79C17 8.5 17.38 9.39 17.38 10.5C17.38 14.32 15.04 15.16 12.81 15.41C13.17 15.72 13.5 16.33 13.5 17.26V20C13.5 20.27 13.66 20.59 14.17 20.5C18.14 19.16 21 15.42 21 11C21 9.68678 20.7413 8.38642 20.2388 7.17317C19.7362 5.95991 18.9997 4.85752 18.0711 3.92893C17.1425 3.00035 16.0401 2.26375 14.8268 1.7612C13.6136 1.25866 12.3132 1 11 1Z" fill="#272F45"/>
</svg>
