<svg width="22" height="22" viewBox="0 0 22 22" fill="none" xmlns="http://www.w3.org/2000/svg">
<path d="M2 4.71427H20C20.2652 4.71427 20.5196 4.54871 20.7071 4.25401C20.8946 3.95931 21 3.55961 21 3.14284C21 2.72607 20.8946 2.32637 20.7071 2.03167C20.5196 1.73697 20.2652 1.57141 20 1.57141H2C1.73478 1.57141 1.48043 1.73697 1.29289 2.03167C1.10536 2.32637 1 2.72607 1 3.14284C1 3.55961 1.10536 3.95931 1.29289 4.25401C1.48043 4.54871 1.73478 4.71427 2 4.71427ZM20 17.2857H2C1.73478 17.2857 1.48043 17.4513 1.29289 17.746C1.10536 18.0407 1 18.4404 1 18.8571C1 19.2739 1.10536 19.6736 1.29289 19.9683C1.48043 20.263 1.73478 20.4286 2 20.4286H20C20.2652 20.4286 20.5196 20.263 20.7071 19.9683C20.8946 19.6736 21 19.2739 21 18.8571C21 18.4404 20.8946 18.0407 20.7071 17.746C20.5196 17.4513 20.2652 17.2857 20 17.2857ZM20 9.42855H2C1.73478 9.42855 1.48043 9.59412 1.29289 9.88882C1.10536 10.1835 1 10.5832 1 11C1 11.4168 1.10536 11.8165 1.29289 12.1112C1.48043 12.4059 1.73478 12.5714 2 12.5714H20C20.2652 12.5714 20.5196 12.4059 20.7071 12.1112C20.8946 11.8165 21 11.4168 21 11C21 10.5832 20.8946 10.1835 20.7071 9.88882C20.5196 9.59412 20.2652 9.42855 20 9.42855Z" fill="#518290"/>
</svg>
