<svg width="20" height="20" viewBox="0 0 20 20" fill="none" xmlns="http://www.w3.org/2000/svg">
<path d="M17 1C17.5304 1 18.0391 1.21071 18.4142 1.58579C18.7893 1.96086 19 2.46957 19 3V17C19 17.5304 18.7893 18.0391 18.4142 18.4142C18.0391 18.7893 17.5304 19 17 19H3C2.46957 19 1.96086 18.7893 1.58579 18.4142C1.21071 18.0391 1 17.5304 1 17V3C1 2.46957 1.21071 1.96086 1.58579 1.58579C1.96086 1.21071 2.46957 1 3 1H17ZM16.5 16.5V11.2C16.5 10.3354 16.1565 9.5062 15.5452 8.89483C14.9338 8.28346 14.1046 7.94 13.24 7.94C12.39 7.94 11.4 8.46 10.92 9.24V8.13H8.13V16.5H10.92V11.57C10.92 10.8 11.54 10.17 12.31 10.17C12.6813 10.17 13.0374 10.3175 13.2999 10.5801C13.5625 10.8426 13.71 11.1987 13.71 11.57V16.5H16.5ZM4.88 6.56C5.32556 6.56 5.75288 6.383 6.06794 6.06794C6.383 5.75288 6.56 5.32556 6.56 4.88C6.56 3.95 5.81 3.19 4.88 3.19C4.43178 3.19 4.00193 3.36805 3.68499 3.68499C3.36805 4.00193 3.19 4.43178 3.19 4.88C3.19 5.81 3.95 6.56 4.88 6.56ZM6.27 16.5V8.13H3.5V16.5H6.27Z" fill="#272F45"/>
</svg>
