<svg width="16" height="15" viewBox="0 0 16 15" fill="none" xmlns="http://www.w3.org/2000/svg">
<g clip-path="url(#clip0_117_37)">
<path d="M16 13.3333C16 13.7754 15.8127 14.1993 15.4793 14.5118C15.1459 14.8244 14.6937 15 14.2222 15H1.77778C1.30628 15 0.854097 14.8244 0.520699 14.5118C0.187301 14.1993 0 13.7754 0 13.3333V1.66667C0 1.22464 0.187301 0.800716 0.520699 0.488155C0.854097 0.175595 1.30628 0 1.77778 0L14.2222 0C14.6937 0 15.1459 0.175595 15.4793 0.488155C15.8127 0.800716 16 1.22464 16 1.66667V13.3333Z" fill="#272F45"/>
<path d="M3.63288 3.80208C3.71555 3.33708 4.25288 2.8075 4.98355 2.8075C5.67244 2.8075 6.21021 3.2725 6.36177 3.7375L7.98799 8.85333H8.01555L9.64088 3.7375C9.79243 3.2725 10.3298 2.8075 11.0191 2.8075C11.7489 2.8075 12.2867 3.33708 12.3698 3.80208L13.6511 11.0112C13.6649 11.0887 13.6649 11.1662 13.6649 11.2304C13.6649 11.7992 13.224 12.1604 12.6729 12.1604C11.9698 12.1604 11.6947 11.8633 11.5982 11.2562L10.7849 5.99833H10.7573L9.10355 11.4112C9.0071 11.7212 8.74577 12.1604 8.00132 12.1604C7.25732 12.1604 6.99555 11.7212 6.8991 11.4112L5.24532 5.99833H5.21777L4.40444 11.2567C4.30799 11.8637 4.03244 12.1608 3.32977 12.1608C2.77866 12.1608 2.33777 11.7996 2.33777 11.2308C2.33777 11.1667 2.33777 11.0887 2.35155 11.0117L3.63288 3.80208Z" fill="white"/>
</g>
<defs>
<clipPath id="clip0_117_37">
<rect width="16" height="15" fill="white"/>
</clipPath>
</defs>
</svg>
