<svg width="20" height="20" viewBox="0 0 20 20" fill="none" xmlns="http://www.w3.org/2000/svg">
<path d="M17.2037 13.25L14.6637 12.96C14.365 12.9249 14.0623 12.958 13.7782 13.0567C13.4942 13.1554 13.2362 13.3173 13.0237 13.53L11.1837 15.37C8.34486 13.9262 6.03745 11.6188 4.59367 8.78L6.44367 6.93C6.87367 6.5 7.08367 5.9 7.01367 5.29L6.72367 2.77C6.66698 2.28218 6.43287 1.83224 6.06591 1.50585C5.69895 1.17946 5.22478 0.999418 4.73367 1H3.00367C1.87367 1 0.933673 1.94 1.00367 3.07C1.53367 11.61 8.36367 18.43 16.8937 18.96C18.0237 19.03 18.9637 18.09 18.9637 16.96V15.23C18.9737 14.22 18.2137 13.37 17.2037 13.25Z" fill="#272F45"/>
</svg>
